<?xml version="1.0" encoding="UTF-8"?>
<svg id="uuid-beca854b-caf4-439a-9647-42e69b28fd54" data-name="图层 1" xmlns="http://www.w3.org/2000/svg" width="513.78" height="479.25" viewBox="0 0 513.78 479.25">
  <path d="m153.87,1.18c-21.58,6.34-43.37,28.84-47.01,48.55-4.87,26.36,1.48,45.49,23.72,71.44,7.07,8.24,7.11,8.58,1.7,15.2-21.97,26.87-48.51,87.77-60.35,138.46-4.38,18.77-5.27,42.46-3.28,87.33l.27,6.08-6.2.24c-7.21.28-24.02,9.01-34.98,18.17-28.95,24.19-36.49,61.23-16.69,81.99,11.11,11.65,7.02,10.99,63.14,10.27,69.73-.9,398.34-.82,408.22.1,30.68,2.85,42.69-32.81,18.44-54.76-5.77-5.22-22.05-14.23-25.7-14.23-.72,0-4.8-1.34-9.07-2.97-4.27-1.63-13.25-3.95-19.96-5.14-14.41-2.57-14.38-2.52-10.18-15,12.01-35.75,7.67-71.71-12.64-104.9-5.68-9.27-5.55-11.9.88-18.52,5.68-5.85,12.42-16.57,12.44-19.81,0-1.11.81-2.68,1.79-3.49,2.61-2.17,5.66-17.15,5.66-27.82,0-24.59-10.49-47.13-34.09-73.27-12.46-13.81-12.15-12.08-4.15-22.62,14.44-19.03,18.5-27.41,20.89-43.19,2.75-18.13-3.17-37.53-13.53-44.39-29.69-19.65-52.44-12.8-68.86,20.76l-5.95,12.16-4.17-.68c-2.29-.37-8.5-2.59-13.8-4.93-20.09-8.87-47.01-15.06-74.13-17.06-23.11-1.7-20.9-.9-24.99-8.98-1.78-3.51-6.5-9.78-10.48-13.93-7.02-7.31-9.47-8.71-24.68-14.13-6.5-2.32-25.64-2.87-32.24-.93Zm26.67,32.95c11.83,5.5,15.43,12.53,16.41,32.17.83,16.45,1,16.63,11.05,11.63,17.96-8.95,49.07-9.62,73.61-1.59,17,5.57,40.49,16.5,47.19,21.96,10.39,8.46,31.34,30.94,41.5,44.53,6.09,8.15,15.29,19.28,20.44,24.73,21.34,22.61,25.11,38.59,14.23,60.23-32.5,64.58-123.67,81.79-217.31,40.99-35.58-15.5-35.75-10.64-.57,16.57,8.89,6.88,8.77,7.38-2.23,9.69-21.55,4.52-43.43,33.97-36.34,48.91,2.87,6.06,3.65,6.05,10.69-.26,3.55-3.18,7.29-6.5,8.31-7.39,3.25-2.83,9.1-5.32,15.87-6.75,48.06-10.17,31.61,44.5-16.74,55.63-11.35,2.61-11.28,4.88.25,9.01,29.12,10.43,67.81-5.07,77.42-31.01,2.74-7.38,3.23-24.56,1.1-38.12-.43-2.71,6.79-3.01,28.75-1.17,5.88.49,14.31.07,22.94-1.13,7.5-1.06,17.07-2.21,21.26-2.56,13.76-1.17,45.48-12.84,65.97-24.27,8.45-4.72,9.96-3.96,15.56,7.84,17.67,37.23,10.11,79.19-19.7,109.39-16.99,17.21-15.71,18.11,24.46,17.11,33.08-.82,42.6.19,62.36,6.59,32.07,10.39,28.01,17.47-10.16,17.7-8.05.05-16.59.18-18.98.3-2.39.12-8.53.14-13.64.04-5.12-.1-14.31-.17-20.43-.17-9.82,0-39.02-2.96-44.06-4.47-1.02-.31-3.19-2.51-4.81-4.9-4.49-6.61-17.8-18.65-33.93-30.69-14.27-10.66-14.5-10.91-13.15-14.26,2.07-5.14,1.59-34.11-.65-38.4-3.99-7.67-12.84-12.76-22.21-12.76-7.44,0-8.31,1.28-7.49,11.05,1.61,19.23-6.14,36.63-23.43,52.58-12.14,11.2-12.81,13.24-4.33,13.28,18.91.09,64.54,14.85,72.01,23.3,4.83,5.47,2.76,6.09-23.62,7.1-48.59,1.84-80.53-.47-110.23-7.97-8.08-2.04-32.5-13.27-38.57-17.73-12.19-8.97-21.64-17.5-23.54-21.24-1.09-2.17-4.45-7.91-7.45-12.77-13.96-22.58-20.53-61.4-15.52-91.62.79-4.77,2.3-14.47,3.35-21.54,4.06-27.42,13.22-53.59,30.83-88.11,4.03-7.89,8.86-17.43,10.73-21.17,1.88-3.75,6.28-11.01,9.78-16.12s7.77-11.41,9.46-13.99c1.7-2.58,5.72-8.07,8.93-12.21,3.22-4.14,6.38-8.26,7.02-9.16.82-1.15-.17-3.66-3.28-8.35-9.2-13.86-16.44-31.35-20.15-48.68-1.17-5.46-2.61-11.87-3.21-14.26-3.8-15.18,9.11-24.5,24.23-17.49Zm216.35,17.43c1.56.98,1.43,2.23-.85,8.97-1.46,4.3-3.53,10.9-4.59,14.65-2.67,9.46-10.87,24.07-13.82,24.64-3,.58-15.41-12.89-15.42-16.72,0-1.44,1.7-4.76,3.78-7.37,2.08-2.62,4.6-6.48,5.6-8.59,5.82-12.28,18.33-19.98,25.29-15.58ZM89.5,419.27c7.07,7.81,15.55,16.22,18.85,18.68s5.77,5.14,5.5,5.94c-.64,1.89-20.27,1.65-37.74-.46-11.27-1.36-12.99-1.3-15.75.5-5.87,3.84-25.04.55-28.62-4.91-3.04-4.64,2.6-18.76,9.76-24.42,6.37-5.04,19.24-9.36,28.19-9.46l6.96-.08,12.85,14.21Z"/>
  <path d="m267.61,127.24c-13.64,2.6-21.78,22.97-16.45,41.2,2.91,9.98,12.54,20.34,17.64,19.01,1.93-.51,9.5-1.19,16.84-1.51l13.33-.59v-16.67c0-27.27-13.32-44.87-31.36-41.43Z"/>
  <path d="m349.23,190.27c-3.31,3.31-.41,15.7,4.92,21.04,6.77,6.77,6.75,6.08.31,12.3-9.9,9.56-20.71,13.61-26.71,10.01-2.53-1.52-5.34-2.21-7.38-1.82-1.81.35-4.58.14-6.15-.45-3.76-1.43-3.8,1.17-.11,7.74,7.17,12.77,25.43,15.41,35.9,5.19l4.6-4.49,10.01.88c11.28.98,13.14-.21,9.34-6.01-3.26-4.98-1.55-9.08,4.98-11.88,12.99-5.57,19.72-26.11,10.22-31.2-2.76-1.48-38.58-2.65-39.92-1.3Z"/>
</svg>