<svg height="512pt" preserveAspectRatio="xMidYMid meet" viewBox="0 0 512 512" width="512pt" xmlns="http://www.w3.org/2000/svg"><script xmlns="" id="__gaOptOutExtension"/><g transform="matrix(.003922 0 0 -.003922 0 512)"><path d="m83494 110318c-2200-1025-3838-3773-4309-7233-252-1851 247-2013 1797-585 1874 1728 4454 2596 5145 1731 140-175 318-2499 395-5163 77-2665 286-5788 465-6941 427-2757 329-2780-2073-485-5589 5340-11959 8305-17143 7981-2431-152-2978 91-1996 886 1138 921 5249 1837 7920 1763 3620-100 2879 1144-894 1502-6457 612-8227 367-10696-1479-5254-3929-5623-4076-5232-2080 1512 7724-2283 10717-9900 7808-9015-3443-11603-10479-5356-14565 3717-2433 4423-2652 3636-1130-1370 2649-1687 4872-905 6340 887 1666 5492 4529 6391 3973 592-365-367-3327-2135-6597-966-1787-1195-2491-1431-4391-345-2771-189-2644-2036-1660-969 517-1722 761-2036 661-1083-343-7401-7976-7401-8941 0-89-389-983-864-1986-475-1004-1051-2273-1279-2821-573-1377-2797-5256-4305-7511-6426-9603 931-17853 18688-20954 8097-1415 9149-2356 6236-5581-2195-2429-9583-3677-13631-2301-2756 936-4491 1703-6954 3073-3211 1785-3248 1778-3239-616 14-4027 1854-9046 4310-11759 1593-1759 1545-1855-709-1429-4444 838-8070-1296-8597-5062-90-648-431-1580-758-2071l-593-892 448-2423c602-3259 1344-4335 2988-4335 1456 0 3924 2610 3924 4149 0 369 291 815 755 1158 1342 992 1698 736 2303-1660 1145-4542 9587-2477 13941 3410 1735 2347 1080 2364 9266-234 7174-2277 7368-2323 10242-2436 3512-138 9816 1210 13329 2849 3815 1781 4628 1899 4881 705 1252-5929 5756-7775 8041-3295 590 1155 1457 1256 1885 218 1107-2690 2584-4088 3630-3438 767 477 1597 1926 1597 2788 0 1888 1256 1776 2125-190 677-1531 2056-2874 3212-3127 1734-381 3730 1857 3132 3512-170 470-309 1673-309 2674 0 6978-7216 11049-13163 7426-1315-801-1970-339-896 633 3125 2828 4046 12517 1732 18213-533 1311-991 2085-3035 5126-675 1002-560 1764 381 2532 1342 1097 4028 3915 4750 4985 368 545 871 1291 1119 1658 852 1263 1468 3824 1507 6267 63 3915-890 5445-7705 12377-6214 6320-7109 7641-5406 7982 2428 486 5737 4636 6592 8269 1944 8260-5074 15843-11777 12722zm-1563-23453c934-390 1982-1505 3343-3556 1191-1794 3858-4475 6144-6175 6875-5114 6426-11040-1275-16826-4329-3252-13572-6643-20427-7494-4049-503-17297 450-21521 1548-1052 273-2314 599-2805 725-5988 1533-9785 5043-9808 9064-12 2300 544 3092 3641 5185 5294 3578 9044 7808 11642 13129 1783 3653 2398 4235 4478 4235 4799 0 6889-7749 3911-14503-992-2251-708-2398 1267-657 5138 4530 13148 5041 17623 1125 1905-1667 2137-1418 925 992-3239 6441-1388 14984 2862 13208zm-14862-42751c489-281 1368-759 1954-1062l1066-551 915 803c3619 3177 5818-1237 3218-6456-1051-2110-3854-5610-4491-5610-745 0-5774 5014-6384 6365-1988 4402 332 8461 3722 6511z"/><path d="m80971 79789c-1256-1104-1287-2695-81-4263 997-1297 1445-1330 2456-179 2281 2598 123 6634-2375 4442z"/><path d="m53443 79786c-2328-1832-2114-5317 404-6563l1050-520 1229 623c1855 940 2279 3294 979 5433-817 1343-2618 1848-3662 1027z"/><path d="m69165 71644c-2003-403-2087-842-442-2338 631-574 1147-1196 1147-1382 0-798 1207-1205 1917-646 1046 823 3210 3663 3126 4103-89 470-3862 643-5748 263z"/><path d="m57800 64345c-949-949 3192-5602 6333-7116 1513-729 5208-867 7067-264 601 195 1411 427 1800 516 1369 313 4149 3570 5034 5896 538 1415-900 402-2275-1603-791-1153-1487-1100-1686 127-539 3317-3647 3535-6555 460-1749-1849-1785-2135-413-3274 1242-1032 1218-1712-60-1712-949 0-2469 1510-3825 3801-1485 2508-4385 4204-5420 3169z"/><path d="m111080 74833c-226-225-410-521-410-656 0-136-450-673-999-1193-550-521-1706-1968-2570-3216l-1570-2269 434-806c496-922-272-4262-1571-6824-1645-3246-1271-3285 1321-135 1067 1297 2320 2762 2785 3254 1085 1152 3077 5021 3428 6659 682 3182 185 6220-848 5186z"/><path d="m17345 70259c-437-527-845-3639-706-5377 196-2440 1593-5031 5868-10886 1484-2033 2799-2554 1448-573-1785 2617-2603 4940-2895 8223-171 1917 205 2079 1924 834 577-419 1150-699 1273-623 640 396 67 1368-2152 3655-1306 1346-2688 2982-3071 3634-770 1314-1256 1634-1689 1113z"/></g></svg>