<svg height="512pt" preserveAspectRatio="xMidYMid meet" viewBox="0 0 512 512" width="512pt" xmlns="http://www.w3.org/2000/svg"><script xmlns="" id="__gaOptOutExtension"/><g transform="matrix(.003922 0 0 -.003922 0 512)"><path d="m45900 115941c-4437-1304-8918-5931-9667-9982-1002-5421 304-9354 4878-14689 1453-1695 1461-1765 350-3125-4517-5525-9975-18048-12409-28470-901-3859-1084-8730-675-17958l56-1251-1275-49c-1482-58-4939-1853-7192-3736-5953-4974-7504-12591-3432-16860 2285-2396 1443-2259 12984-2111 14338 185 81907 168 83940-21 6308-586 8777 6746 3791 11259-1186 1073-4533 2927-5285 2927-148 0-987 275-1865 611s-2725 812-4105 1057c-2963 528-2956 518-2094 3084 2469 7351 1577 14746-2600 21570-1168 1906-1142 2446 181 3808 1168 1203 2553 3408 2557 4073 1 228 167 551 368 718 537 446 1164 3527 1164 5721 0 5057-2156 9691-7010 15065-2563 2839-2498 2484-854 4651 2970 3914 3803 5637 4295 8881 565 3727-652 7718-2782 9127-6105 4040-10782 2631-14160-4268l-1224-2500-857 139c-471 76-1748 533-2838 1014-4130 1824-9666 3097-15242 3507-4752 349-4297 186-5138 1846-366 722-1336 2011-2155 2865-1444 1503-1947 1791-5075 2906-1337 477-5272 590-6630 191zm5483-6775c2433-1130 3172-2577 3375-6615 170-3382 206-3420 2272-2391 3694 1841 10089 1979 15135 326 3496-1146 8325-3392 9704-4515 2137-1740 6444-6362 8533-9157 1252-1676 3144-3964 4203-5086 4388-4649 5164-7934 2925-12384-6682-13280-25429-16817-44683-8429-7317 3188-7352 2187-118-3408 1827-1414 1803-1517-458-1992-4432-930-8931-6985-7473-10057 591-1247 751-1243 2199 53 729 653 1498 1337 1708 1520 669 582 1872 1093 3264 1388 9883 2092 6500-9150-3443-11439-2333-537-2320-1003 52-1852 5987-2145 13943 1042 15919 6376 563 1517 664 5050 226 7839-88 558 1397 618 5912 240 1210-101 2943-15 4718 233 1542 217 3510 454 4371 527 2830 241 9351 2640 13565 4991 1738 970 2048 814 3199-1612 3633-7655 2079-16284-4051-22494-3494-3539-3231-3723 5029-3519 6801 168 8760-39 12822-1355 6595-2136 5759-3592-2090-3640-1656-10-3412-38-3903-61-491-24-1753-28-2805-8s-2942 35-4201 34c-2019-2-8023 608-9059 920-210 63-656 517-989 1008-923 1359-3660 3834-6977 6311-2934 2191-2982 2243-2703 2933 426 1056 326 7014-133 7896-821 1578-2640 2623-4566 2623-1530 0-1708-263-1540-2272 332-3954-1263-7532-4818-10812-2496-2303-2633-2723-890-2731 3889-18 13270-3054 14806-4791 994-1125 567-1253-4857-1459-9991-379-16558 96-22665 1639-1662 420-6683 2728-7930 3646-2507 1845-4450 3598-4840 4367-225 446-915 1627-1532 2626-2870 4643-4222 12625-3191 18840 163 981 473 2975 689 4430 835 5638 2718 11019 6339 18118 828 1623 1822 3583 2207 4354 386 771 1291 2263 2012 3315s1597 2346 1945 2877c349 530 1176 1660 1837 2511 662 851 1312 1699 1444 1884 169 236-34 752-674 1716-1892 2849-3381 6446-4144 10010-240 1122-537 2441-660 2932-782 3122 1874 5038 4983 3596zm44486-3584c320-202 295-459-175-1845-301-885-725-2241-943-3012-550-1946-2235-4950-2841-5067-616-119-3169 2651-3170 3438 0 296 349 979 777 1516 427 538 945 1332 1151 1766 1197 2525 3770 4109 5201 3204zm-63206-75609c1454-1606 3198-3335 3876-3841s1186-1056 1130-1222c-132-388-4167-339-7760 94-2318 279-2672 268-3238-103-1206-790-5148-113-5884 1010-625 954 535 3857 2006 5022 1309 1036 3956 1925 5796 1946l1431 16z"/><path d="m69287 90021c-2805-535-4478-4723-3383-8471 599-2052 2578-4183 3628-3908 396 104 1954 244 3462 311l2741 122v3428c0 5608-2739 9226-6448 8518z"/><path d="m86071 77061c-681-681-85-3229 1012-4326 1392-1392 1388-1251 63-2530-2036-1966-4259-2799-5493-2059-520 312-1098 455-1517 375-373-71-942-29-1264 93-774 295-782-240-23-1591 1475-2625 5229-3168 7381-1067l945 923 2059-180c2319-202 2701 44 1920 1236-671 1024-318 1868 1024 2443 2671 1145 4055 5369 2102 6415-568 304-7932 545-8209 268z"/></g></svg>